# xmcd
#
# Track frame offsets:
# 150
# 15142
# 23990
# 42875
# 54930
# 62989
# 78050
# 94597
# 103667
#
# Disc length: 1586 seconds
#
# Revision: 0
# Processed by: cddbd v1.4PL0 Copyright (c) Steve Scherf et al.
# Submitted via: Audion 3.0.2 (http://www.panic.com/audion/)
#
DISCID=5c063009
DTITLE=Mel Torme - Mellow Moods
DYEAR=1900
DGENRE=
TTITLE0=Gone with the wind
TTITLE1=don't take your love from me
TTITLE2=the blues
TTITLE3=a cottage for sale
TTITLE4=love me or leave me
TTITLE5=when its sleepy time down south
TTITLE6=blues in the night
TTITLE7=three little words
TTITLE8=i cover the water front
EXTD=
EXTT0=
EXTT1=
EXTT2=
EXTT3=
EXTT4=
EXTT5=
EXTT6=
EXTT7=
EXTT8=
PLAYORDER=
